<svg xmlns="http://www.w3.org/2000/svg" xmlns:xlink="http://www.w3.org/1999/xlink" width="137" height="32" viewBox="0 0 137 32"> <title>Travel + Leisure</title> <path fill="#000" d="M123.584 5.285h4.424V1.41h3.137v3.875h4.424v2.98h-4.424v3.875h-3.137V8.265h-4.424v-2.98zm1.13 23.107h11.168v3.294h-15.09v-13.24h14.777v3.295h-10.856v1.757h8.864v2.98h-8.864v1.914zm-4.456-14.84h-14.934V.312h3.922v9.946h11.012v3.294zm-9.46 9.397c0-.785-.502-1.208-1.71-1.208h-6.682v2.416h6.683c1.207 0 1.71-.424 1.71-1.208zm-2.682 4.423h-5.71v4.314h-3.922v-13.24h10.448c4 0 5.945 1.961 5.945 4.455 0 1.789-1.082 3.122-3.027 3.797l3.985 4.988h-4.393l-3.326-4.314zM88.162 10.258h11.17v3.294H84.24V.312h14.778v3.294H88.162v1.757h8.863v2.98h-8.863v1.915zm.44 15.467v-7.279h3.921v7.436c0 4.047-2.698 6.118-8.188 6.118-5.491 0-8.19-2.07-8.19-6.118v-7.436h3.922v7.28c0 1.976 1.224 2.823 4.268 2.823 3.043 0 4.266-.847 4.266-2.824zM72.835 13.552h-3.53l-8-13.24h4.423l5.397 9.067L76.522.312h4.314l-8 13.24zm-4.44 9.036c-3.012-1.035-4.643-1.302-6.62-1.302-2.494 0-3.043.407-3.043.973 0 .407.314.642 1.349.736l5.726.487c3.953.33 5.334 1.945 5.334 4.094 0 2.541-2.761 4.424-8.362 4.424-2.541 0-5.93-.533-8.91-1.522l2.07-3.231c2.95 1.082 5.774 1.569 7.828 1.569 2.699 0 3.295-.424 3.295-.957 0-.424-.298-.753-1.475-.863l-5.569-.518c-3.78-.345-5.208-1.772-5.208-3.921 0-2.275 2.15-4.424 7.734-4.424 2.431 0 4.988.47 7.765 1.49l-1.914 2.965zM55.093 8.17L52.74 4.093 50.387 8.17h4.706zm-10.73 23.515h3.922v-13.24h-3.922v13.24zm12.55-20.377h-8.345l-1.302 2.243H43.03l8-13.24h3.53l8 13.24h-4.345l-1.302-2.243zM35.594 4.814c0-.784-.502-1.208-1.71-1.208h-6.682v2.416h6.682c1.208 0 1.71-.424 1.71-1.208zm-8.392 23.578H38.37v3.294H23.28v-13.24h14.777v3.295H27.202v1.757h8.863v2.98h-8.863v1.914zm5.71-19.154h-5.71v4.314H23.28V.312h10.447c4 0 5.946 1.96 5.946 4.455 0 1.788-1.083 3.122-3.028 3.796l3.985 4.989h-4.393l-3.325-4.314zm-14.81 22.448H3.17v-13.24H7.09v9.946h11.012v3.294zM0 .312h18.103v3.294h-7.09v9.946H7.09V3.606H0V.312z"></path> </svg>