<svg width="673.7775634765625px" height="131.60498046875px" xmlns="http://www.w3.org/2000/svg" viewBox="-86.88878173828124 9.197509765625 673.7775634765625 131.60498046875" style="background:#596886" preserveAspectRatio="xMidYMid"><defs><filter id="editing-hover" x="-100%" y="-100%" width="300%" height="300%"><feFlood flood-color="#052b4a" result="flood"></feFlood><feComposite operator="in" in2="SourceAlpha" in="flood" result="shadow"></feComposite><feOffset dx="-4" dy="-4" in="SourceGraphic" result="offset-1"></feOffset><feOffset dx="4" dy="4" in="shadow" result="offset-2"></feOffset><feMerge><feMergeNode in="offset-2"></feMergeNode><feMergeNode in="offset-1"></feMergeNode></feMerge></filter></defs><g filter="url(#editing-hover)"><g transform="translate(9.404996395111084, 107.15499877929688)"><path d="M43.19-23.25L43.19-23.25L43.19-23.25Q43.19-17.44 41.72-13L41.72-13L41.72-13Q40.25-8.56 37.66-5.63L37.66-5.63L37.66-5.63Q35.06-2.69 31.59-1.19L31.59-1.19L31.59-1.19Q28.13 0.31 24 0.31L24 0.31L24 0.31Q19.88 0.31 16.41-1.19L16.41-1.19L16.41-1.19Q12.94-2.69 10.34-5.63L10.34-5.63L10.34-5.63Q7.75-8.56 6.28-13L6.28-13L6.28-13Q4.81-17.44 4.81-23.25L4.81-23.25L4.81-23.25Q4.81-29.06 6.28-33.47L6.28-33.47L6.28-33.47Q7.75-37.88 10.34-40.81L10.34-40.81L10.34-40.81Q12.94-43.75 16.41-45.28L16.41-45.28L16.41-45.28Q19.88-46.81 24-46.81L24-46.81L24-46.81Q28.13-46.81 31.59-45.28L31.59-45.28L31.59-45.28Q35.06-43.75 37.66-40.81L37.66-40.81L37.66-40.81Q40.25-37.88 41.72-33.47L41.72-33.47L41.72-33.47Q43.19-29.06 43.19-23.25ZM23.81-5.81L23.81-5.81L23.81-5.81Q26.13-5.81 28.22-6.72L28.22-6.72L28.22-6.72Q30.31-7.63 31.97-9.69L31.97-9.69L31.97-9.69Q33.63-11.75 34.56-15.09L34.56-15.09L34.56-15.09Q35.50-18.44 35.56-23.25L35.56-23.25L35.56-23.25Q35.50-27.94 34.59-31.22L34.59-31.22L34.59-31.22Q33.69-34.50 32.09-36.63L32.09-36.63L32.09-36.63Q30.50-38.75 28.47-39.69L28.47-39.69L28.47-39.69Q26.44-40.63 24.19-40.63L24.19-40.63L24.19-40.63Q21.88-40.63 19.78-39.75L19.78-39.75L19.78-39.75Q17.69-38.88 16.03-36.78L16.03-36.78L16.03-36.78Q14.38-34.69 13.44-31.38L13.44-31.38L13.44-31.38Q12.50-28.06 12.44-23.25L12.44-23.25L12.44-23.25Q12.50-18.56 13.41-15.25L13.41-15.25L13.41-15.25Q14.31-11.94 15.91-9.84L15.91-9.84L15.91-9.84Q17.50-7.75 19.53-6.78L19.53-6.78L19.53-6.78Q21.56-5.81 23.81-5.81ZM55.75-3.56L55.75-3.56L55.75-3.56Q53.38-6.25 52.25-10.19L52.25-10.19L52.25-10.19Q51.13-14.13 51.13-18.13L51.13-18.13L51.13-18.13Q51.13-23 52.47-26.31L52.47-26.31L52.47-26.31Q53.81-29.63 55.94-31.69L55.94-31.69L55.94-31.69Q58.06-33.75 60.66-34.66L60.66-34.66L60.66-34.66Q63.25-35.56 65.75-35.56L65.75-35.56L65.75-35.56Q68.81-35.56 71.34-34.50L71.34-34.50L71.34-34.50Q73.88-33.44 75.13-31.69L75.13-31.69L75.13-48.56L82.75-48.56L82.75 0L75.56 0L75.56 0Q75.44-1.06 75.34-2.16L75.34-2.16L75.34-2.16Q75.25-3.25 75.13-4.19L75.13-4.19L75.13-4.19Q74.94-3.38 74.03-2.56L74.03-2.56L74.03-2.56Q73.13-1.75 71.72-1.09L71.72-1.09L71.72-1.09Q70.31-0.44 68.56-0.06L68.56-0.06L68.56-0.06Q66.81 0.31 64.94 0.31L64.94 0.31L64.94 0.31Q62.44 0.31 60.03-0.56L60.03-0.56L60.03-0.56Q57.63-1.44 55.75-3.56ZM59.13-17.56L59.13-17.56L59.13-17.56Q59.13-15.06 59.75-12.91L59.75-12.91L59.75-12.91Q60.38-10.75 61.44-9.13L61.44-9.13L61.44-9.13Q62.50-7.50 64.03-6.56L64.03-6.56L64.03-6.56Q65.56-5.63 67.38-5.63L67.38-5.63L67.38-5.63Q69.31-5.63 70.84-6.59L70.84-6.59L70.84-6.59Q72.38-7.56 73.44-9.19L73.44-9.19L73.44-9.19Q74.50-10.81 75.06-13L75.06-13L75.06-13Q75.63-15.19 75.63-17.69L75.63-17.69L75.63-17.69Q75.63-20.19 75.03-22.38L75.03-22.38L75.03-22.38Q74.44-24.56 73.34-26.19L73.34-26.19L73.34-26.19Q72.25-27.81 70.72-28.78L70.72-28.78L70.72-28.78Q69.19-29.75 67.25-29.75L67.25-29.75L67.25-29.75Q65.31-29.75 63.81-28.78L63.81-28.78L63.81-28.78Q62.31-27.81 61.28-26.13L61.28-26.13L61.28-26.13Q60.25-24.44 59.69-22.25L59.69-22.25L59.69-22.25Q59.13-20.06 59.13-17.56ZM119.81-35.25L127.44-35.25L127.44-35.25Q124-26.06 121.31-18.97L121.31-18.97L121.31-18.97Q118.63-11.88 116.63-6.53L116.63-6.53L116.63-6.53Q114.63-1.19 113.09 2.50L113.09 2.50L113.09 2.50Q111.56 6.19 110.28 8.66L110.28 8.66L110.28 8.66Q109 11.13 107.88 12.53L107.88 12.53L107.88 12.53Q106.75 13.94 105.56 14.69L105.56 14.69L105.56 14.69Q104.38 15.44 102.97 15.59L102.97 15.59L102.97 15.59Q101.56 15.75 99.75 15.75L99.75 15.75L99.75 15.75Q99.19 15.75 98.44 15.59L98.44 15.59L98.44 15.59Q97.69 15.44 96.97 15.22L96.97 15.22L96.97 15.22Q96.25 15 95.69 14.78L95.69 14.78L95.69 14.78Q95.13 14.56 94.94 14.50L94.94 14.50L94.94 14.50Q95.19 13.38 95.44 12.38L95.44 12.38L95.44 12.38Q95.63 11.50 95.84 10.72L95.84 10.72L95.84 10.72Q96.06 9.94 96.19 9.63L96.19 9.63L96.19 9.63Q96.69 9.63 97.72 9.94L97.72 9.94L97.72 9.94Q98.75 10.25 99.25 10.25L99.25 10.25L99.25 10.25Q100.25 10.25 101.03 10.16L101.03 10.16L101.03 10.16Q101.81 10.06 102.44 9.59L102.44 9.59L102.44 9.59Q103.06 9.13 103.63 8.22L103.63 8.22L103.63 8.22Q104.19 7.31 104.88 5.63L104.88 5.63L107.25 0L92.81-35.25L100.38-35.25L110.69-8.13L119.81-35.25ZM134.75-2.81L134.75-2.81L137.94-7.88L137.94-7.88Q139.19-7 140.91-6.25L140.91-6.25L140.91-6.25Q142.63-5.50 145.25-5.50L145.25-5.50L145.25-5.50Q148.69-5.50 150.63-6.56L150.63-6.56L150.63-6.56Q152.56-7.63 152.56-9.69L152.56-9.69L152.56-9.69Q152.56-11.19 151.44-12.09L151.44-12.09L151.44-12.09Q150.31-13 148.59-13.66L148.59-13.66L148.59-13.66Q146.88-14.31 144.91-14.91L144.91-14.91L144.91-14.91Q142.94-15.50 141.25-16.38L141.25-16.38L141.25-16.38Q137.94-18.13 136.28-20.06L136.28-20.06L136.28-20.06Q134.63-22 134.63-25.19L134.63-25.19L134.63-25.19Q134.63-27.81 135.72-29.81L135.72-29.81L135.72-29.81Q136.81-31.81 138.56-33.16L138.56-33.16L138.56-33.16Q140.31-34.50 142.56-35.19L142.56-35.19L142.56-35.19Q144.81-35.88 147.13-35.88L147.13-35.88L147.13-35.88Q150.25-35.88 152.88-35.22L152.88-35.22L152.88-35.22Q155.50-34.56 157.94-33L157.94-33L155.50-27.81L155.50-27.81Q153.63-28.88 151.44-29.28L151.44-29.28L151.44-29.28Q149.25-29.69 147.13-29.69L147.13-29.69L147.13-29.69Q144.81-29.69 143.47-28.66L143.47-28.66L143.47-28.66Q142.13-27.63 142.13-25.44L142.13-25.44L142.13-25.44Q142.13-23.75 143.34-22.78L143.34-22.78L143.34-22.78Q144.56-21.81 146.50-21.06L146.50-21.06L146.50-21.06Q148.44-20.31 150.63-19.56L150.63-19.56L150.63-19.56Q152.81-18.81 154.72-17.66L154.72-17.66L154.72-17.66Q156.63-16.50 157.88-14.75L157.88-14.75L157.88-14.75Q159.13-13 159.13-10.25L159.13-10.25L159.13-10.25Q159.13-7.56 158.06-5.56L158.06-5.56L158.06-5.56Q157-3.56 155.19-2.25L155.19-2.25L155.19-2.25Q153.38-0.94 151-0.31L151-0.31L151-0.31Q148.63 0.31 145.94 0.31L145.94 0.31L145.94 0.31Q144.31 0.31 142.94 0.22L142.94 0.22L142.94 0.22Q141.56 0.13 140.25-0.19L140.25-0.19L140.25-0.19Q138.94-0.50 137.63-1.13L137.63-1.13L137.63-1.13Q136.31-1.75 134.75-2.81ZM168.25-2.81L168.25-2.81L171.44-7.88L171.44-7.88Q172.69-7 174.41-6.25L174.41-6.25L174.41-6.25Q176.13-5.50 178.75-5.50L178.75-5.50L178.75-5.50Q182.19-5.50 184.13-6.56L184.13-6.56L184.13-6.56Q186.06-7.63 186.06-9.69L186.06-9.69L186.06-9.69Q186.06-11.19 184.94-12.09L184.94-12.09L184.94-12.09Q183.81-13 182.09-13.66L182.09-13.66L182.09-13.66Q180.38-14.31 178.41-14.91L178.41-14.91L178.41-14.91Q176.44-15.50 174.75-16.38L174.75-16.38L174.75-16.38Q171.44-18.13 169.78-20.06L169.78-20.06L169.78-20.06Q168.13-22 168.13-25.19L168.13-25.19L168.13-25.19Q168.13-27.81 169.22-29.81L169.22-29.81L169.22-29.81Q170.31-31.81 172.06-33.16L172.06-33.16L172.06-33.16Q173.81-34.50 176.06-35.19L176.06-35.19L176.06-35.19Q178.31-35.88 180.63-35.88L180.63-35.88L180.63-35.88Q183.75-35.88 186.38-35.22L186.38-35.22L186.38-35.22Q189-34.56 191.44-33L191.44-33L189-27.81L189-27.81Q187.13-28.88 184.94-29.28L184.94-29.28L184.94-29.28Q182.75-29.69 180.63-29.69L180.63-29.69L180.63-29.69Q178.31-29.69 176.97-28.66L176.97-28.66L176.97-28.66Q175.63-27.63 175.63-25.44L175.63-25.44L175.63-25.44Q175.63-23.75 176.84-22.78L176.84-22.78L176.84-22.78Q178.06-21.81 180-21.06L180-21.06L180-21.06Q181.94-20.31 184.13-19.56L184.13-19.56L184.13-19.56Q186.31-18.81 188.22-17.66L188.22-17.66L188.22-17.66Q190.13-16.50 191.38-14.75L191.38-14.75L191.38-14.75Q192.63-13 192.63-10.25L192.63-10.25L192.63-10.25Q192.63-7.56 191.56-5.56L191.56-5.56L191.56-5.56Q190.50-3.56 188.69-2.25L188.69-2.25L188.69-2.25Q186.88-0.94 184.50-0.31L184.50-0.31L184.50-0.31Q182.13 0.31 179.44 0.31L179.44 0.31L179.44 0.31Q177.81 0.31 176.44 0.22L176.44 0.22L176.44 0.22Q175.06 0.13 173.75-0.19L173.75-0.19L173.75-0.19Q172.44-0.50 171.13-1.13L171.13-1.13L171.13-1.13Q169.81-1.75 168.25-2.81ZM217.19-35.63L217.19-35.63L217.19-35.63Q221.44-35.63 224.69-33.91L224.69-33.91L224.69-33.91Q227.94-32.19 230.03-29.34L230.03-29.34L230.03-29.34Q232.13-26.50 233.03-22.78L233.03-22.78L233.03-22.78Q233.94-19.06 233.38-15.06L233.38-15.06L208.88-15.06L208.88-15.06Q208.88-13.06 209.63-11.38L209.63-11.38L209.63-11.38Q210.38-9.69 211.66-8.47L211.66-8.47L211.66-8.47Q212.94-7.25 214.72-6.56L214.72-6.56L214.72-6.56Q216.50-5.88 218.56-5.88L218.56-5.88L218.56-5.88Q219.25-5.88 220.28-6.03L220.28-6.03L220.28-6.03Q221.31-6.19 222.47-6.59L222.47-6.59L222.47-6.59Q223.63-7 224.78-7.63L224.78-7.63L224.78-7.63Q225.94-8.25 226.81-9.13L226.81-9.13L229.56-4.94L229.56-4.94Q227.50-2.38 224.75-1.06L224.75-1.06L224.75-1.06Q222 0.25 217.75 0.25L217.75 0.25L217.75 0.25Q214.31 0.25 211.31-1.16L211.31-1.16L211.31-1.16Q208.31-2.56 206.19-5L206.19-5L206.19-5Q204.06-7.44 202.81-10.69L202.81-10.69L202.81-10.69Q201.56-13.94 201.56-17.69L201.56-17.69L201.56-17.69Q201.56-21.38 202.81-24.66L202.81-24.66L202.81-24.66Q204.06-27.94 206.16-30.38L206.16-30.38L206.16-30.38Q208.25-32.81 211.13-34.22L211.13-34.22L211.13-34.22Q214-35.63 217.19-35.63ZM209.13-20.56L226.38-20.56L226.38-20.56Q226.38-22.25 225.75-23.88L225.75-23.88L225.75-23.88Q225.13-25.50 224.03-26.81L224.03-26.81L224.03-26.81Q222.94-28.13 221.38-28.91L221.38-28.91L221.38-28.91Q219.81-29.69 218-29.75L218-29.75L218-29.75Q216.06-29.75 214.44-29L214.44-29L214.44-29Q212.81-28.25 211.63-27L211.63-27L211.63-27Q210.44-25.75 209.78-24.03L209.78-24.03L209.78-24.03Q209.13-22.31 209.13-20.56L209.13-20.56ZM269.69-35.25L277.31-35.25L277.31-35.25Q273.88-26.06 271.19-18.97L271.19-18.97L271.19-18.97Q268.50-11.88 266.50-6.53L266.50-6.53L266.50-6.53Q264.50-1.19 262.97 2.50L262.97 2.50L262.97 2.50Q261.44 6.19 260.16 8.66L260.16 8.66L260.16 8.66Q258.88 11.13 257.75 12.53L257.75 12.53L257.75 12.53Q256.63 13.94 255.44 14.69L255.44 14.69L255.44 14.69Q254.25 15.44 252.84 15.59L252.84 15.59L252.84 15.59Q251.44 15.75 249.63 15.75L249.63 15.75L249.63 15.75Q249.06 15.75 248.31 15.59L248.31 15.59L248.31 15.59Q247.56 15.44 246.84 15.22L246.84 15.22L246.84 15.22Q246.13 15 245.56 14.78L245.56 14.78L245.56 14.78Q245 14.56 244.81 14.50L244.81 14.50L244.81 14.50Q245.06 13.38 245.31 12.38L245.31 12.38L245.31 12.38Q245.50 11.50 245.72 10.72L245.72 10.72L245.72 10.72Q245.94 9.94 246.06 9.63L246.06 9.63L246.06 9.63Q246.56 9.63 247.59 9.94L247.59 9.94L247.59 9.94Q248.63 10.25 249.13 10.25L249.13 10.25L249.13 10.25Q250.13 10.25 250.91 10.16L250.91 10.16L250.91 10.16Q251.69 10.06 252.31 9.59L252.31 9.59L252.31 9.59Q252.94 9.13 253.50 8.22L253.50 8.22L253.50 8.22Q254.06 7.31 254.75 5.63L254.75 5.63L257.13 0L242.69-35.25L250.25-35.25L260.56-8.13L269.69-35.25ZM300.25-46.06L335.31-46.06L335.31-40.94L321.56-40.94L321.56 0L314 0L314-40.94L300.25-40.94L300.25-46.06ZM359.56-35.44L359.56-35.44L359.56-35.44Q363.19-35.44 366.13-34.03L366.13-34.03L366.13-34.03Q369.06-32.63 371.13-30.19L371.13-30.19L371.13-30.19Q373.19-27.75 374.31-24.50L374.31-24.50L374.31-24.50Q375.44-21.25 375.44-17.50L375.44-17.50L375.44-17.50Q375.44-13.75 374.25-10.47L374.25-10.47L374.25-10.47Q373.06-7.19 370.91-4.78L370.91-4.78L370.91-4.78Q368.75-2.38 365.78-1.03L365.78-1.03L365.78-1.03Q362.81 0.31 359.19 0.31L359.19 0.31L359.19 0.31Q355.50 0.31 352.47-1.06L352.47-1.06L352.47-1.06Q349.44-2.44 347.34-4.88L347.34-4.88L347.34-4.88Q345.25-7.31 344.13-10.56L344.13-10.56L344.13-10.56Q343-13.81 343-17.63L343-17.63L343-17.63Q343-21.44 344.22-24.75L344.22-24.75L344.22-24.75Q345.44-28.06 347.59-30.41L347.59-30.41L347.59-30.41Q349.75-32.75 352.81-34.09L352.81-34.09L352.81-34.09Q355.88-35.44 359.56-35.44ZM359.06-5.63L359.06-5.63L359.06-5.63Q360.94-5.63 362.47-6.53L362.47-6.53L362.47-6.53Q364-7.44 365.09-9.03L365.09-9.03L365.09-9.03Q366.19-10.63 366.84-12.81L366.84-12.81L366.84-12.81Q367.50-15 367.50-17.50L367.50-17.50L367.50-17.50Q367.50-20 366.91-22.19L366.91-22.19L366.91-22.19Q366.31-24.38 365.28-26.03L365.28-26.03L365.28-26.03Q364.25-27.69 362.75-28.69L362.75-28.69L362.75-28.69Q361.25-29.69 359.38-29.69L359.38-29.69L359.38-29.69Q357.50-29.69 355.94-28.75L355.94-28.75L355.94-28.75Q354.38-27.81 353.28-26.22L353.28-26.22L353.28-26.22Q352.19-24.63 351.59-22.47L351.59-22.47L351.59-22.47Q351-20.31 351-17.81L351-17.81L351-17.81Q351-15.31 351.53-13.09L351.53-13.09L351.53-13.09Q352.06-10.88 353.13-9.25L353.13-9.25L353.13-9.25Q354.19-7.63 355.66-6.63L355.66-6.63L355.66-6.63Q357.13-5.63 359.06-5.63ZM385-34.06L385-34L385-35.25L392.63-35.25L392.63-16.06L392.63-16.06Q392.63-13.88 392.81-11.97L392.81-11.97L392.81-11.97Q393-10.06 393.63-8.63L393.63-8.63L393.63-8.63Q394.25-7.19 395.50-6.31L395.50-6.31L395.50-6.31Q396.75-5.44 398.81-5.44L398.81-5.44L398.81-5.44Q399.44-5.44 400.56-5.59L400.56-5.59L400.56-5.59Q401.69-5.75 402.84-6.13L402.84-6.13L402.84-6.13Q404-6.50 405.03-7.06L405.03-7.06L405.03-7.06Q406.06-7.63 406.56-8.38L406.56-8.38L406.56-8.81L406.56-8.88L406.56-22.88L406.56-22.94L406.56-35.25L414.19-35.25L414.19 0L407.38 0L406.56-3.63L406.56-3.63Q405.81-2.94 404.69-2.25L404.69-2.25L404.69-2.25Q403.56-1.56 402.22-0.97L402.22-0.97L402.22-0.97Q400.88-0.38 399.47-0.03L399.47-0.03L399.47-0.03Q398.06 0.31 396.69 0.31L396.69 0.31L396.69 0.31Q395.19 0.31 394 0.03L394 0.03L394 0.03Q392.81-0.25 391.78-0.84L391.78-0.84L391.78-0.84Q390.75-1.44 389.81-2.19L389.81-2.19L389.81-2.19Q388.88-2.94 387.94-3.88L387.94-3.88L387.94-3.88Q386.88-4.94 386.25-6.34L386.25-6.34L386.25-6.34Q385.63-7.75 385.34-9.28L385.34-9.28L385.34-9.28Q385.06-10.81 385.03-12.38L385.03-12.38L385.03-12.38Q385-13.94 385-15.44L385-15.44L385-34.06ZM444.63-35.50L444.63-27.63L444.63-27.63Q442.88-28.13 440.38-28.19L440.38-28.19L440.38-28.19Q438.13-28.19 435.91-27.66L435.91-27.66L435.91-27.66Q433.69-27.13 432.38-25.88L432.38-25.88L432.38-12.50L432.38-12.38L432.38 0L424.81 0L424.81-35.25L431.56-35.25L432.38-31.63L432.38-31.63Q433.31-32.56 434.34-33.31L434.34-33.31L434.34-33.31Q435.38-34.06 436.75-34.53L436.75-34.53L436.75-34.53Q438.13-35 440-35.25L440-35.25L440-35.25Q441.88-35.50 444.63-35.50L444.63-35.50ZM452-2.81L452-2.81L455.19-7.88L455.19-7.88Q456.44-7 458.16-6.25L458.16-6.25L458.16-6.25Q459.88-5.50 462.50-5.50L462.50-5.50L462.50-5.50Q465.94-5.50 467.88-6.56L467.88-6.56L467.88-6.56Q469.81-7.63 469.81-9.69L469.81-9.69L469.81-9.69Q469.81-11.19 468.69-12.09L468.69-12.09L468.69-12.09Q467.56-13 465.84-13.66L465.84-13.66L465.84-13.66Q464.13-14.31 462.16-14.91L462.16-14.91L462.16-14.91Q460.19-15.50 458.50-16.38L458.50-16.38L458.50-16.38Q455.19-18.13 453.53-20.06L453.53-20.06L453.53-20.06Q451.88-22 451.88-25.19L451.88-25.19L451.88-25.19Q451.88-27.81 452.97-29.81L452.97-29.81L452.97-29.81Q454.06-31.81 455.81-33.16L455.81-33.16L455.81-33.16Q457.56-34.50 459.81-35.19L459.81-35.19L459.81-35.19Q462.06-35.88 464.38-35.88L464.38-35.88L464.38-35.88Q467.50-35.88 470.13-35.22L470.13-35.22L470.13-35.22Q472.75-34.56 475.19-33L475.19-33L472.75-27.81L472.75-27.81Q470.88-28.88 468.69-29.28L468.69-29.28L468.69-29.28Q466.50-29.69 464.38-29.69L464.38-29.69L464.38-29.69Q462.06-29.69 460.72-28.66L460.72-28.66L460.72-28.66Q459.38-27.63 459.38-25.44L459.38-25.44L459.38-25.44Q459.38-23.75 460.59-22.78L460.59-22.78L460.59-22.78Q461.81-21.81 463.75-21.06L463.75-21.06L463.75-21.06Q465.69-20.31 467.88-19.56L467.88-19.56L467.88-19.56Q470.06-18.81 471.97-17.66L471.97-17.66L471.97-17.66Q473.88-16.50 475.13-14.75L475.13-14.75L475.13-14.75Q476.38-13 476.38-10.25L476.38-10.25L476.38-10.25Q476.38-7.56 475.31-5.56L475.31-5.56L475.31-5.56Q474.25-3.56 472.44-2.25L472.44-2.25L472.44-2.25Q470.63-0.94 468.25-0.31L468.25-0.31L468.25-0.31Q465.88 0.31 463.19 0.31L463.19 0.31L463.19 0.31Q461.56 0.31 460.19 0.22L460.19 0.22L460.19 0.22Q458.81 0.13 457.50-0.19L457.50-0.19L457.50-0.19Q456.19-0.50 454.88-1.13L454.88-1.13L454.88-1.13Q453.56-1.75 452-2.81Z" fill="#ffd5af"></path></g></g><style>text {
  font-size: 64px;
  font-family: Arial Black;
  dominant-baseline: central;
  text-anchor: middle;
}</style></svg>